<?xml version="1.0"?>
<svg xmlns="http://www.w3.org/2000/svg" xmlns:xlink="http://www.w3.org/1999/xlink" xmlns:svgjs="http://svgjs.com/svgjs" version="1.1" width="512" height="512" x="0" y="0" viewBox="0 0 512.304 512.304" style="enable-background:new 0 0 512 512" xml:space="preserve" class=""><g><g xmlns="http://www.w3.org/2000/svg"><path d="m304.145 302.277-83.942-28.716v-29.977c21.642-15.98 31.368-36.281 31.364-69.706h7.564c15.658 0 28.397-12.739 28.397-28.397v-15.659c0-11.537-6.92-21.483-16.824-25.922v-34.4c0-38.322-31.178-69.5-69.5-69.5h-62.373c-38.322 0-69.5 31.178-69.5 69.5v33.457c-11.164 3.827-19.215 14.42-19.215 26.865v15.659c0 15.658 12.739 28.397 28.397 28.397h7.563c-.276 26.065 9.723 53.728 31.366 69.707v29.976l-43.124 14.756c-3.92 1.341-5.909 5.571-4.668 9.523 1.501 4.779 5.704 5.896 9.523 4.668l20.023-6.852v54.308c0 6.099 6.853 9.182 11.41 6.4l24.427-14.924 10.546 18.754-14.535 137.107h-63.439v-113.793c0-4.143-3.357-7.5-7.5-7.5s-7.5 3.357-7.5 7.5v113.796h-37.078v-148.91c0-14.423 9.174-27.252 22.826-31.923l9.89-3.38c3.919-1.339 6.011-5.603 4.671-9.522s-5.605-6.014-9.522-4.671l-9.892 3.38c-19.722 6.747-32.973 25.28-32.973 46.116v156.41c0 4.143 3.357 7.5 7.5 7.5h321.59c4.143 0 7.5-3.357 7.5-7.5v-71.35c0-4.143-3.357-7.5-7.5-7.5s-7.5 3.357-7.5 7.5v63.85h-42.407v-113.796c0-4.143-3.357-7.5-7.5-7.5s-7.5 3.357-7.5 7.5v113.796h-58.112l-14.535-137.107 10.546-18.754 24.427 14.924c4.556 2.785 11.41-.307 11.41-6.4v-54.309l60.843 20.814c13.653 4.671 22.827 17.5 22.827 31.923v52.37c0 4.143 3.357 7.5 7.5 7.5s7.5-3.357 7.5-7.5v-52.37c.001-20.837-13.249-39.37-32.971-46.118zm-98.968-27.029-36.354 27.373-36.355-27.374v-22.996c20.088 8.739 52.622 8.739 72.71 0v22.997zm67.352-129.767c0 7.388-6.01 13.397-13.397 13.397h-7.561v-42.454h7.561c7.388 0 13.397 6.01 13.397 13.397zm-188.197-75.981c0-30.052 24.448-54.5 54.5-54.5h62.373c30.052 0 54.5 24.448 54.5 54.5v23.287c-17.184-18.232-45.248-27.765-67.006-9.185-10.513 8.98-25.834 9.051-36.418.181-21.493-18.107-50.393-8.292-67.949 9.068zm1.743 89.379h-7.561c-7.388 0-13.397-6.01-13.397-13.397v-15.659c0-7.388 6.01-13.397 13.397-13.397h7.561zm15.002 22.734v-83.224c11.429-9.904 28.589-14.045 41.554-3.123 16.233 13.61 39.705 13.5 55.811-.257 11.622-9.926 27.115-6.889 38.126 1.26v85.345c-.001 82.331-135.491 82.331-135.491-.001zm13.121 108.925 9.401-3.191 31.896 24.017-41.298 25.231v-46.057zm65.769 60.569h-22.289l-9.835-17.489 20.979-12.815 20.979 12.815zm-33.838 146.197 13.909-131.196h17.568l13.908 131.196zm77.318-160.709-41.297-25.231 31.896-24.017 9.4 3.191v46.057z" fill="#3c4b64" data-original="#000000" style="" class=""/><path d="m136.44 154.746c4.143 0 7.5-3.357 7.5-7.5v-9.844c0-4.143-3.357-7.5-7.5-7.5s-7.5 3.357-7.5 7.5v9.844c0 4.143 3.357 7.5 7.5 7.5z" fill="#3c4b64" data-original="#000000" style="" class=""/><path d="m201.057 154.746c4.143 0 7.5-3.357 7.5-7.5v-9.844c0-4.143-3.357-7.5-7.5-7.5s-7.5 3.357-7.5 7.5v9.844c0 4.143 3.358 7.5 7.5 7.5z" fill="#3c4b64" data-original="#000000" style="" class=""/><path d="m168.823 214.338c14.507 0 26.309-11.802 26.309-26.309 0-4.143-3.357-7.5-7.5-7.5s-7.5 3.357-7.5 7.5c0 6.235-5.073 11.309-11.309 11.309s-11.309-5.073-11.309-11.309c0-4.143-3.357-7.5-7.5-7.5s-7.5 3.357-7.5 7.5c0 14.507 11.802 26.309 26.309 26.309z" fill="#3c4b64" data-original="#000000" style="" class=""/><path d="m511.777 181.733c0-48.925-34.907-90.808-83.003-99.588-4.396-.801-8.611 2.413-8.841 7.045-.188 3.795 2.662 7.064 6.398 7.757 42.471 7.881 72.802 46.094 70.303 89.813-2.508 43.873-38.232 79.137-82.132 81.114-49.342 2.222-90.194-37.278-90.194-86.141 0-42.187 30.153-77.937 71.697-85.006 4.385-.745 7.228-5.156 5.925-9.555-1.09-3.679-4.926-5.84-8.707-5.186-23.16 4.006-44.361 16.121-59.723 34.135-15.601 18.293-24.192 41.595-24.192 65.612 0 53.297 41.402 97.104 93.733 100.953v12.914h-11.309c-4.142 0-7.5 3.358-7.5 7.5v102.703c0 14.53 11.779 26.308 26.308 26.308 14.53 0 26.308-11.779 26.308-26.308v-102.703c0-4.142-3.358-7.5-7.5-7.5h-11.308v-12.914c52.334-3.853 93.737-47.658 93.737-100.953zm-89.929 224.069c0 6.245-5.063 11.308-11.308 11.308-6.245 0-11.308-5.063-11.308-11.308v-95.202h22.616z" fill="#3c4b64" data-original="#000000" style="" class=""/><path d="m344.37 181.73c0 36.487 29.685 66.172 66.171 66.172s66.17-29.685 66.17-66.172c0-36.486-29.684-66.17-66.17-66.17s-66.171 29.684-66.171 66.17zm66.171-51.169c28.215 0 51.17 22.955 51.17 51.17 0 28.216-22.955 51.172-51.17 51.172-28.216 0-51.171-22.956-51.171-51.172 0-28.215 22.955-51.17 51.171-51.17z" fill="#3c4b64" data-original="#000000" style="" class=""/></g></g></svg>
