<?xml version="1.0"?>
<svg xmlns="http://www.w3.org/2000/svg" xmlns:xlink="http://www.w3.org/1999/xlink" xmlns:svgjs="http://svgjs.com/svgjs" version="1.1" width="512" height="512" x="0" y="0" viewBox="0 0 512 512" style="enable-background:new 0 0 512 512" xml:space="preserve"><g><g xmlns="http://www.w3.org/2000/svg"><path d="m205.07 283.605c0-4.143-3.357-7.5-7.5-7.5s-7.5 3.357-7.5 7.5v16.739c0 4.143 3.357 7.5 7.5 7.5s7.5-3.357 7.5-7.5z" fill="#3c4b64" data-original="#000000" style=""/><path d="m244.023 283.605c0-4.143-3.357-7.5-7.5-7.5s-7.5 3.357-7.5 7.5v16.739c0 4.143 3.357 7.5 7.5 7.5s7.5-3.357 7.5-7.5z" fill="#3c4b64" data-original="#000000" style=""/><path d="m282.977 283.605c0-4.143-3.357-7.5-7.5-7.5s-7.5 3.357-7.5 7.5v16.739c0 4.143 3.357 7.5 7.5 7.5s7.5-3.357 7.5-7.5z" fill="#3c4b64" data-original="#000000" style=""/><path d="m321.93 283.605c0-4.143-3.357-7.5-7.5-7.5s-7.5 3.357-7.5 7.5v16.739c0 4.143 3.357 7.5 7.5 7.5s7.5-3.357 7.5-7.5z" fill="#3c4b64" data-original="#000000" style=""/><path d="m205.07 330.938c0-4.143-3.357-7.5-7.5-7.5s-7.5 3.357-7.5 7.5v16.739c0 4.143 3.357 7.5 7.5 7.5s7.5-3.357 7.5-7.5z" fill="#3c4b64" data-original="#000000" style=""/><path d="m244.023 330.938c0-4.143-3.357-7.5-7.5-7.5s-7.5 3.357-7.5 7.5v16.739c0 4.143 3.357 7.5 7.5 7.5s7.5-3.357 7.5-7.5z" fill="#3c4b64" data-original="#000000" style=""/><path d="m282.977 330.938c0-4.143-3.357-7.5-7.5-7.5s-7.5 3.357-7.5 7.5v16.739c0 4.143 3.357 7.5 7.5 7.5s7.5-3.357 7.5-7.5z" fill="#3c4b64" data-original="#000000" style=""/><path d="m321.93 330.938c0-4.143-3.357-7.5-7.5-7.5s-7.5 3.357-7.5 7.5v16.739c0 4.143 3.357 7.5 7.5 7.5s7.5-3.357 7.5-7.5z" fill="#3c4b64" data-original="#000000" style=""/><path d="m197.57 370.769c-4.143 0-7.5 3.357-7.5 7.5v16.739c0 4.143 3.357 7.5 7.5 7.5s7.5-3.357 7.5-7.5v-16.739c0-4.143-3.357-7.5-7.5-7.5z" fill="#3c4b64" data-original="#000000" style=""/><path d="m236.523 370.769c-4.143 0-7.5 3.357-7.5 7.5v16.739c0 4.143 3.357 7.5 7.5 7.5s7.5-3.357 7.5-7.5v-16.739c0-4.143-3.357-7.5-7.5-7.5z" fill="#3c4b64" data-original="#000000" style=""/><path d="m275.477 370.769c-4.143 0-7.5 3.357-7.5 7.5v16.739c0 4.143 3.357 7.5 7.5 7.5s7.5-3.357 7.5-7.5v-16.739c0-4.143-3.358-7.5-7.5-7.5z" fill="#3c4b64" data-original="#000000" style=""/><path d="m314.43 370.769c-4.143 0-7.5 3.357-7.5 7.5v16.739c0 4.143 3.357 7.5 7.5 7.5s7.5-3.357 7.5-7.5v-16.739c0-4.143-3.358-7.5-7.5-7.5z" fill="#3c4b64" data-original="#000000" style=""/><path d="m73.496 400.934c4.143 0 7.5-3.357 7.5-7.5v-16.738c0-4.143-3.357-7.5-7.5-7.5s-7.5 3.357-7.5 7.5v16.738c0 4.142 3.358 7.5 7.5 7.5z" fill="#3c4b64" data-original="#000000" style=""/><path d="m106.232 400.934c4.143 0 7.5-3.357 7.5-7.5v-16.738c0-4.143-3.357-7.5-7.5-7.5s-7.5 3.357-7.5 7.5v16.738c0 4.142 3.358 7.5 7.5 7.5z" fill="#3c4b64" data-original="#000000" style=""/><path d="m138.969 400.934c4.143 0 7.5-3.357 7.5-7.5v-16.738c0-4.143-3.357-7.5-7.5-7.5s-7.5 3.357-7.5 7.5v16.738c0 4.142 3.357 7.5 7.5 7.5z" fill="#3c4b64" data-original="#000000" style=""/><path d="m65.996 440.272c0 4.143 3.357 7.5 7.5 7.5s7.5-3.357 7.5-7.5v-16.738c0-4.143-3.357-7.5-7.5-7.5s-7.5 3.357-7.5 7.5z" fill="#3c4b64" data-original="#000000" style=""/><path d="m98.732 440.272c0 4.143 3.357 7.5 7.5 7.5s7.5-3.357 7.5-7.5v-16.738c0-4.143-3.357-7.5-7.5-7.5s-7.5 3.357-7.5 7.5z" fill="#3c4b64" data-original="#000000" style=""/><path d="m131.469 440.272c0 4.143 3.357 7.5 7.5 7.5s7.5-3.357 7.5-7.5v-16.738c0-4.143-3.357-7.5-7.5-7.5s-7.5 3.357-7.5 7.5z" fill="#3c4b64" data-original="#000000" style=""/><path d="m438.505 369.195c-4.143 0-7.5 3.357-7.5 7.5v16.738c0 4.143 3.357 7.5 7.5 7.5s7.5-3.357 7.5-7.5v-16.738c0-4.142-3.358-7.5-7.5-7.5z" fill="#3c4b64" data-original="#000000" style=""/><path d="m405.769 369.195c-4.143 0-7.5 3.357-7.5 7.5v16.738c0 4.143 3.357 7.5 7.5 7.5s7.5-3.357 7.5-7.5v-16.738c0-4.142-3.358-7.5-7.5-7.5z" fill="#3c4b64" data-original="#000000" style=""/><path d="m373.031 369.195c-4.143 0-7.5 3.357-7.5 7.5v16.738c0 4.143 3.357 7.5 7.5 7.5s7.5-3.357 7.5-7.5v-16.738c0-4.142-3.357-7.5-7.5-7.5z" fill="#3c4b64" data-original="#000000" style=""/><path d="m438.505 416.034c-4.143 0-7.5 3.357-7.5 7.5v16.738c0 4.143 3.357 7.5 7.5 7.5s7.5-3.357 7.5-7.5v-16.738c0-4.142-3.358-7.5-7.5-7.5z" fill="#3c4b64" data-original="#000000" style=""/><path d="m405.769 416.034c-4.143 0-7.5 3.357-7.5 7.5v16.738c0 4.143 3.357 7.5 7.5 7.5s7.5-3.357 7.5-7.5v-16.738c0-4.142-3.358-7.5-7.5-7.5z" fill="#3c4b64" data-original="#000000" style=""/><path d="m373.031 416.034c-4.143 0-7.5 3.357-7.5 7.5v16.738c0 4.143 3.357 7.5 7.5 7.5s7.5-3.357 7.5-7.5v-16.738c0-4.142-3.357-7.5-7.5-7.5z" fill="#3c4b64" data-original="#000000" style=""/><path d="m235.776 95.505c-1.784 2.244-2.134 5.31-.899 7.896 1.234 2.588 3.836 4.246 6.703 4.271l31.16.275h.067c4.111 0 7.462-3.314 7.499-7.434.036-4.142-3.292-7.529-7.434-7.566l-16.975-.149c1.325-2.875 1.905-5.651 1.936-8.9h3.244c4.143 0 7.5-3.357 7.5-7.5s-3.357-7.5-7.5-7.5h-6.904c-1.226-2.157-2.525-5.07-2.516-7.253 0-3.633 6.951-4.403 9.805-2.666 1.816 1.104 3.006 2.526 3.243 3.36 1.13 3.985 5.274 6.297 9.263 5.167 3.984-1.131 6.298-5.278 5.167-9.263-1.324-4.665-4.925-9.068-9.879-12.081-6.602-4.015-16.468-4.063-23.459-.115-7.958 4.493-11.093 12.919-7.907 22.971-3.52.618-6.196 3.682-6.196 7.379 0 4.143 3.357 7.5 7.5 7.5h3.686c-.041 1.991-.738 3.391-3.156 6.641z" fill="#3c4b64" data-original="#000000" style=""/><path d="m60.764 232.348c12.283-11.846 28.431-18.369 45.469-18.369s33.186 6.523 45.469 18.369c1.455 1.403 3.331 2.102 5.205 2.102 1.965 0 3.928-.768 5.399-2.294 2.875-2.981 2.789-7.729-.192-10.604-15.093-14.556-34.938-22.572-55.881-22.572s-40.788 8.017-55.881 22.572c-2.981 2.875-3.067 7.623-.192 10.604 2.873 2.981 7.622 3.066 10.604.192z" fill="#3c4b64" data-original="#000000" style=""/><path d="m142.438 252.486c2.862-2.994 2.756-7.742-.237-10.604-9.738-9.311-22.512-14.438-35.969-14.438-13.456 0-26.23 5.128-35.969 14.439-2.993 2.862-3.1 7.61-.237 10.604 1.474 1.541 3.446 2.316 5.422 2.316 1.863 0 3.729-.69 5.183-2.079 6.934-6.63 16.025-10.281 25.602-10.281s18.669 3.65 25.602 10.28c2.992 2.864 7.739 2.756 10.603-.237z" fill="#3c4b64" data-original="#000000" style=""/><path d="m87.537 259.414c-3.032 2.822-3.203 7.567-.381 10.6 1.478 1.588 3.481 2.391 5.492 2.391 1.829 0 3.663-.665 5.107-2.01 2.324-2.163 5.335-3.354 8.477-3.354 3.143 0 6.152 1.191 8.477 3.354 3.031 2.822 7.777 2.652 10.6-.381 2.822-3.032 2.651-7.777-.381-10.6-5.108-4.755-11.748-7.373-18.695-7.373-6.947-.001-13.587 2.618-18.696 7.373z" fill="#3c4b64" data-original="#000000" style=""/><path d="m504.5 497h-29.38v-157.693c0-4.143-3.357-7.5-7.5-7.5h-54.352v-64.138h16.241c14.793 0 26.827-12.034 26.827-26.827s-12.034-26.828-26.827-26.828c-.097 0-.193.001-.289.002-5.162-9.091-14.985-15.037-25.698-15.037-13.115 0-24.398 8.677-28.165 20.716-11.423 1.91-20.158 11.865-20.158 23.822 0 13.317 10.835 24.152 24.152 24.152h18.917v64.138h-46.853v-39.318c0-4.143-3.357-7.5-7.5-7.5s-7.5 3.357-7.5 7.5v204.511h-28.464v-50.633c0-7.621-6.2-13.821-13.822-13.821h-76.26c-7.621 0-13.821 6.2-13.821 13.821v50.633h-28.464v-235.865l160.831-62.403v63.77c0 4.143 3.357 7.5 7.5 7.5s7.5-3.357 7.5-7.5v-74.725c0-2.475-1.221-4.79-3.263-6.188-2.043-1.398-4.643-1.697-6.95-.804l-77.702 30.149v-60.255c38.137-3.778 68.026-36.037 68.026-75.152 0-9.422-1.733-18.646-5.153-27.416-1.504-3.859-5.853-5.771-9.712-4.263-3.859 1.504-5.768 5.853-4.263 9.712 2.739 7.026 4.128 14.417 4.128 21.967 0 33.374-27.152 60.526-60.526 60.526s-60.526-27.152-60.526-60.526 27.152-60.527 60.526-60.527c15.358 0 30.009 5.773 41.254 16.257 3.031 2.824 7.776 2.657 10.601-.372 2.824-3.03 2.657-7.775-.372-10.601-14.032-13.08-32.315-20.284-51.483-20.284-41.646 0-75.526 33.881-75.526 75.526 0 39.115 29.889 71.374 68.026 75.152v66.075l-83.128 32.254c-2.886 1.12-4.787 3.897-4.787 6.992v75.807h-46.853v-48.201c0-4.143-3.357-7.5-7.5-7.5s-7.5 3.357-7.5 7.5v48.201h-54.351c-4.143 0-7.5 3.357-7.5 7.5v118.369c0 4.143 3.357 7.5 7.5 7.5s7.5-3.357 7.5-7.5v-110.868h108.704v150.193h-108.704v-9.338c0-4.143-3.357-7.5-7.5-7.5s-7.5 3.357-7.5 7.5v9.338h-29.381c-4.143 0-7.5 3.357-7.5 7.5s3.357 7.5 7.5 7.5h497c4.143 0 7.5-3.357 7.5-7.5s-3.357-7.5-7.5-7.5zm-134.301-253.483c0-5.047 4.105-9.152 9.152-9.152.405 0 .811.027 1.205.081 2.061.28 4.145-.308 5.755-1.622s2.604-3.239 2.74-5.314c.502-7.587 6.858-13.53 14.471-13.53 6.348 0 12.06 4.248 13.892 10.331 1.166 3.87 5.188 6.121 9.093 5.09.973-.256 1.982-.386 3.003-.386 6.521 0 11.827 5.306 11.827 11.828 0 6.521-5.306 11.827-11.827 11.827h-50.158c-5.047-.001-9.153-4.107-9.153-9.153zm-151.15 253.483v-49.454h73.903v49.454zm132.367 0v-150.193h108.704v150.193z" fill="#3c4b64" data-original="#000000" style=""/></g></g></svg>
